<?xml version="1.0" standalone="no"?>
<!DOCTYPE svg PUBLIC "-//W3C//DTD SVG 20010904//EN"
 "http://www.w3.org/TR/2001/REC-SVG-20010904/DTD/svg10.dtd">
<svg version="1.0" xmlns="http://www.w3.org/2000/svg"
 width="336.000000pt" height="336.000000pt" viewBox="0 0 336.000000 336.000000"
 preserveAspectRatio="xMidYMid meet">
<metadata>
Created by potrace 1.11, written by Peter Selinger 2001-2013
</metadata>
<g transform="translate(0.000000,336.000000) scale(0.100000,-0.100000)"
fill="#000000" stroke="none">
<path d="M63 3290 c-10 -3 -26 -10 -37 -16 -17 -11 -18 -31 -18 -411 0 -397 4
-458 37 -559 21 -62 66 -154 77 -154 5 0 6 -4 3 -10 -3 -5 -1 -10 4 -10 6 0
11 -6 11 -12 0 -20 106 -133 169 -182 97 -75 227 -132 354 -157 48 -9 187 -12
247 -5 70 7 191 43 202 60 4 6 8 8 8 4 0 -11 140 62 140 73 0 5 3 8 8 7 13 -5
71 45 65 55 -3 6 -1 7 5 3 12 -7 134 123 126 136 -3 4 -1 8 4 8 14 0 77 126
103 205 28 88 35 290 13 369 -29 103 -37 126 -47 126 -6 0 -8 3 -4 6 16 17
-80 159 -162 239 -139 136 -335 218 -537 224 -159 5 -753 6 -771 1z"/>
<path d="M2597 3293 c-1 -1 -36 -3 -77 -4 -156 -5 -283 -45 -420 -134 -90 -58
-220 -191 -212 -217 1 -4 -2 -8 -8 -8 -11 0 -87 -156 -94 -194 -3 -14 -7 -29
-10 -34 -6 -10 -18 -124 -18 -167 0 -61 13 -158 23 -176 5 -11 7 -19 5 -19
-15 0 72 -189 99 -217 8 -8 15 -19 15 -25 0 -16 178 -188 195 -188 8 0 15 -4
15 -8 0 -13 136 -77 211 -100 57 -18 155 -33 224 -35 95 -4 335 50 335 74 0 6
4 8 10 4 10 -6 50 13 62 29 3 5 13 11 22 12 32 5 156 114 224 197 61 75 122
215 142 330 13 67 17 809 6 845 -4 12 -11 20 -16 17 -5 -3 -10 0 -12 6 -3 8
-109 12 -362 13 -197 0 -358 0 -359 -1z"/>
<path d="M1617 1864 c-1 -1 -24 -5 -52 -8 -117 -16 -240 -63 -346 -133 -70
-45 -205 -170 -196 -179 2 -3 -9 -19 -24 -35 -16 -17 -26 -35 -23 -40 3 -5 1
-9 -4 -9 -18 0 -72 -144 -89 -235 -9 -52 -9 -189 0 -240 18 -101 64 -212 122
-295 48 -69 117 -140 128 -133 5 3 7 2 4 -3 -3 -6 13 -25 36 -44 22 -19 53
-48 69 -64 15 -16 28 -26 28 -22 0 4 12 -6 26 -23 14 -17 31 -28 37 -24 7 3 9
3 5 -2 -4 -4 -2 -12 5 -19 115 -108 205 -184 211 -178 4 4 6 3 4 -3 -1 -5 7
-20 20 -32 12 -13 22 -21 22 -19 0 3 13 -9 29 -25 52 -51 67 -44 227 108 21
20 38 40 36 45 -1 4 4 7 10 5 7 -1 12 4 11 10 -2 7 0 12 5 11 9 -3 37 21 147
127 46 44 110 105 143 134 34 30 58 59 55 65 -3 5 -1 6 4 3 6 -4 18 3 26 16 8
12 27 36 41 52 32 36 99 152 101 174 0 9 4 21 7 26 8 13 35 122 38 155 5 53 3
157 -4 200 -25 164 -123 333 -262 450 -35 30 -89 65 -90 59 0 -2 -8 4 -18 14
-10 9 -24 17 -32 17 -8 0 -14 5 -14 10 0 6 -8 10 -18 10 -10 0 -22 4 -27 9
-14 12 -146 53 -152 47 -3 -3 -14 -1 -25 5 -15 8 -213 20 -221 13z"/>
</g>
</svg>
